<?xml version="1.0" encoding="UTF-8"?>
<svg id="Layer_2" data-name="Layer 2" xmlns="http://www.w3.org/2000/svg" viewBox="0 0 43.88 27.48">
  <defs>
    <style>
      .cls-1 {
        fill: #fff;
        stroke-width: 0px;
      }
    </style>
  </defs>
  <g id="Layer_1-2" data-name="Layer 1">
    <g>
      <path class="cls-1" d="m12.14,14.57c-.42,0-.79-.18-1.1-.53-.31-.35-.5-.86-.55-1.53l-2.16.32c.12,1.24.53,2.21,1.24,2.93.71.71,1.57,1.07,2.59,1.07s1.99-.42,2.76-1.27c.77-.85,1.16-1.92,1.16-3.22,0-.89-.21-1.63-.61-2.23-.41-.59-.94-.98-1.59-1.15.56-.37.98-.81,1.26-1.31.28-.5.42-1.05.42-1.67,0-.92-.31-1.75-.94-2.5-.62-.75-1.47-1.13-2.53-1.13-.94,0-1.73.29-2.35.88-.62.59-1.04,1.53-1.25,2.83l2.06.43c.05-.63.22-1.1.49-1.42.28-.32.6-.48.98-.48s.68.14.92.42c.24.28.36.66.36,1.15,0,.59-.17,1.04-.5,1.36-.34.32-.8.48-1.37.46l-.24,2.22c.4-.14.74-.2,1.02-.2.43,0,.8.2,1.11.59.3.39.46.94.46,1.63,0,.74-.16,1.32-.48,1.74-.32.42-.71.63-1.17.63Z"/>
      <path class="cls-1" d="m21.84,7.38c-.41,0-.79.1-1.13.3-.34.2-.65.5-.93.9.08-1.61.29-2.68.61-3.21.32-.53.72-.79,1.21-.79.74,0,1.17.53,1.27,1.58l2.16-.29c-.16-1.18-.54-2.07-1.13-2.65-.59-.58-1.32-.87-2.18-.87-1.25,0-2.27.57-3.06,1.71-.8,1.14-1.19,3.01-1.19,5.61s.38,4.4,1.15,5.5c.77,1.11,1.73,1.66,2.89,1.66,1.06,0,1.95-.43,2.67-1.28.72-.85,1.08-2.03,1.08-3.52,0-1.41-.34-2.53-1.02-3.38-.68-.85-1.47-1.27-2.39-1.27Zm.8,6.61c-.28.39-.62.59-1.03.59s-.81-.24-1.14-.71c-.33-.47-.5-1.16-.5-2.05,0-.81.15-1.41.45-1.82.3-.41.66-.61,1.09-.61s.81.21,1.11.64c.3.43.45,1.1.45,2.03s-.14,1.54-.41,1.93Z"/>
      <path class="cls-1" d="m30.29,16.83c1.12,0,2.03-.54,2.73-1.61.7-1.07,1.05-2.95,1.05-5.63s-.35-4.56-1.05-5.64c-.7-1.07-1.61-1.61-2.74-1.61s-2.03.54-2.73,1.61c-.7,1.07-1.05,2.94-1.05,5.61s.35,4.61,1.05,5.67c.7,1.06,1.61,1.6,2.74,1.6Zm-1.06-11.36c.26-.58.61-.87,1.05-.87s.8.29,1.06.87c.26.58.39,1.95.39,4.12s-.13,3.53-.39,4.11c-.26.58-.61.87-1.06.87s-.79-.29-1.05-.87c-.26-.58-.39-1.95-.39-4.12s.13-3.54.39-4.12Z"/>
      <path class="cls-1" d="m38.72,5.73c1.58,0,2.87-1.28,2.87-2.87s-1.28-2.87-2.87-2.87-2.87,1.28-2.87,2.87,1.28,2.87,2.87,2.87Zm0-3.85c.55,0,.99.44.99.99s-.44.99-.99.99-.99-.44-.99-.99.44-.99.99-.99Z"/>
      <path class="cls-1" d="m36.96,10.76v.76c2.83,1.02,4.54,2.33,4.54,3.75,0,2.74-6.3,5.05-14.83,5.7v3.5c9.84-.81,17.21-4.09,17.21-8.02,0-2.36-2.66-4.2-6.92-5.7Z"/>
      <path class="cls-1" d="m16.08,20.9c-8.14-.73-14.08-2.97-14.08-5.63,0-1.49,1.86-2.85,4.93-3.89v-.63c-4.26,1.5-6.92,3.34-6.92,5.7,0,3.77,6.81,6.94,16.08,7.9v3.12l7.81-4.71-7.81-4.71v2.85Z"/>
    </g>
  </g>
</svg>