<svg xmlns="http://www.w3.org/2000/svg" width="82" height="70" viewBox="0 0 82 70" fill="none"><path d="M49.9301 5.39954V8.47953L45.7 8.56953L45.72 11.8395H44.1V5.72953L49.9301 5.38953V5.39954ZM49.9301 19.4795L45.77 19.2195L45.75 15.8795L44.1 15.8395V22.1095L49.9301 22.5795V19.4895V19.4795ZM46.5 11.8395H49.9301V9.25953L46.49 9.33953L46.51 11.8395H46.5ZM43.3199 15.0295L45.75 15.0895L45.73 12.6095H43.3199V5.76954L41.87 5.84953V21.9095L43.3199 22.0295V15.0295ZM46.51 12.6195L46.53 15.1195L49.9301 15.2095V12.6195H46.51ZM46.53 15.8995L46.55 18.4895L49.9301 18.6995V15.9895L46.53 15.8995ZM41.87 23.0395V26.1395C41.87 26.4795 42.15 26.7995 42.49 26.8395L49.3 27.6395C49.64 27.6795 49.9301 27.4295 49.9301 27.0895V23.6895L41.87 23.0395ZM49.9301 4.26954V1.04953C49.9301 0.699534 49.65 0.449535 49.3 0.499535L42.49 1.29953C42.15 1.33953 41.87 1.65953 41.87 1.99953V4.72953L49.9301 4.25953V4.26954ZM31.72 5.38953V8.46954L35.9399 8.55954L35.92 11.8295H37.54V5.71954L31.71 5.37954L31.72 5.38953ZM31.72 22.5695L37.55 22.0995V15.8295L35.9 15.8695L35.88 19.2095L31.72 19.4695V22.5595V22.5695ZM35.16 9.33953L31.72 9.25953V11.8395H35.14L35.16 9.33953ZM38.33 22.0395L39.78 21.9195V5.85954L38.33 5.77953V12.6195H35.92L35.9 15.0995L38.33 15.0395V22.0395ZM31.72 12.6195V15.2095L35.12 15.1195L35.14 12.6195H31.72ZM31.72 15.9895V18.6995L35.1 18.4895L35.12 15.8995L31.72 15.9895ZM31.72 23.6895V27.0895C31.72 27.4395 32 27.6895 32.34 27.6395L39.15 26.8395C39.49 26.7995 39.77 26.4795 39.77 26.1395V23.0395L31.71 23.6895H31.72ZM39.78 4.73954V2.00953C39.78 1.65953 39.5 1.34954 39.16 1.30954L32.35 0.509533C32.01 0.469533 31.73 0.719536 31.73 1.05954V4.27953L39.79 4.74954L39.78 4.73954Z" fill="#6A6D6F"></path><path d="M6.69006 58.46H9.04016C8.78016 58.94 8.72009 59.24 8.72009 60.1V67.35C8.72009 68.21 8.77016 68.51 9.04016 68.99H6.69006C6.94006 68.54 6.99011 68.25 6.99011 67.35V64.12H2.38013V67.35C2.38013 68.2 2.42018 68.52 2.68018 68.99H0.330078C0.590078 68.52 0.630127 68.19 0.630127 67.35V60.1C0.630127 59.26 0.590078 58.93 0.330078 58.46H2.68018C2.42018 58.93 2.38013 59.25 2.38013 60.1V62.95H6.99011V60.1C6.99011 59.2 6.94006 58.91 6.69006 58.46Z" fill="#6A6D6F"></path><path d="M14.4896 68.2602C15.1096 68.8902 16.0097 69.2102 17.1797 69.2102C18.3497 69.2102 19.1696 68.9302 20.1296 68.2102L20.2096 68.1402V68.9902H22.2596C21.9896 68.5102 21.9596 68.2002 21.9596 67.3502V60.1002C21.9596 59.2602 21.9996 58.9402 22.2596 58.4602H19.8997C20.1597 58.9202 20.1996 59.2102 20.1996 60.1002V65.1602C20.1996 66.2102 20.0197 66.8002 19.5397 67.3002C19.0897 67.7802 18.4196 68.0502 17.6896 68.0502C16.9096 68.0502 16.2296 67.7202 15.8296 67.1502C15.4696 66.6302 15.3796 66.1602 15.3796 64.9402V60.0902C15.3796 59.2202 15.4296 58.9202 15.6996 58.4502H13.3496C13.5996 58.9102 13.6497 59.2302 13.6497 60.0902V65.4302C13.6497 66.9302 13.8496 67.5902 14.4796 68.2502" fill="#6A6D6F"></path><path d="M36.0206 68.9899C35.7206 68.5999 35.5506 68.3299 35.1906 67.5499L30.6406 58.1299L26.3007 67.3999C25.9507 68.1499 25.7106 68.5699 25.3906 68.9799H27.8007C27.7107 68.7299 27.6807 68.5999 27.6807 68.3899C27.6807 68.0899 27.7806 67.6599 27.9106 67.3599L28.7406 65.5599H32.4706L32.4906 65.5899L33.3206 67.3499C33.4906 67.6999 33.6106 68.1199 33.6106 68.3899C33.6106 68.5699 33.5806 68.7499 33.4906 68.9799H36.0507L36.0206 68.9899ZM29.2406 64.4399L29.2706 64.3699L30.5706 61.4999L31.9207 64.4399H29.2306H29.2406Z" fill="#6A6D6F"></path><path d="M42.8701 67.93H41.6301V60.1C41.6301 59.26 41.6702 58.93 41.9302 58.46H39.5801C39.8401 58.93 39.8801 59.25 39.8801 60.1V67.35C39.8801 68.23 39.8301 68.54 39.5901 68.99H45.0602L45.8301 67.27C44.8701 67.77 44.1301 67.94 42.8701 67.94" fill="#6A6D6F"></path><path d="M50.1498 68.2602C50.7698 68.8902 51.6697 69.2102 52.8397 69.2102C54.0097 69.2102 54.8298 68.9302 55.7798 68.2102L55.8698 68.1402V68.9902H57.9198C57.6598 68.5102 57.6198 68.2002 57.6198 67.3502V60.1002C57.6198 59.2602 57.6598 58.9402 57.9198 58.4602H55.5697C55.8197 58.9202 55.8698 59.2102 55.8698 60.1002V65.1602C55.8698 66.2202 55.6897 66.8002 55.1997 67.3002C54.7497 67.7802 54.0797 68.0502 53.3597 68.0502C52.5797 68.0502 51.8997 67.7202 51.4897 67.1502C51.1397 66.6402 51.0398 66.1602 51.0398 64.9402V60.0902C51.0398 59.2202 51.0897 58.9102 51.3597 58.4502H49.0098C49.2598 58.9102 49.3098 59.2402 49.3098 60.0902V65.4302C49.3098 66.9302 49.4998 67.5902 50.1398 68.2502" fill="#6A6D6F"></path><path d="M66.2705 64.9102L68.0905 67.6902C68.3805 68.1502 68.5005 68.4802 68.5005 68.8202C68.5005 68.8702 68.5005 68.9002 68.4905 68.9502C68.4905 68.9602 68.4905 68.9702 68.4905 68.9902H71.2205C70.6905 68.5502 70.3305 68.1302 69.7605 67.2902L67.2705 63.5002L67.2905 63.4702L69.2705 60.4002C69.8405 59.5202 70.2405 59.0402 70.9005 58.4602H68.3405C68.3705 58.5702 68.3905 58.6502 68.3905 58.7702C68.3905 59.1302 68.2605 59.4802 67.8905 60.0402L66.4604 62.2702L66.4205 62.2002L65.0704 60.1402C64.6904 59.5502 64.5105 59.0902 64.5105 58.7002C64.5105 58.6202 64.5105 58.5602 64.5305 58.4502H61.8005C62.4005 59.0502 62.7405 59.5102 63.4005 60.5102L65.4205 63.6202L65.4005 63.6502L63.1305 67.1202C62.6405 67.8602 62.1905 68.3802 61.5205 68.9802H64.0305C64.0305 68.9202 64.0305 68.8702 64.0305 68.8302C64.0305 68.4902 64.1504 68.1502 64.4404 67.6502L66.2405 64.8302L66.2905 64.9002L66.2705 64.9102Z" fill="#6A6D6F"></path><path d="M78.0905 67.93H76.8304V64.07H77.6605C78.5905 64.06 79.2205 64.23 79.8105 64.65L80.6405 63H76.8405V59.52H78.0505C79.1005 59.52 79.7505 59.67 80.2705 60.03L81.0405 58.46H74.8105C75.0805 58.93 75.1105 59.25 75.1105 60.1V67.35C75.1105 68.2 75.0705 68.52 74.8105 68.99H80.5905L81.3304 67.39C80.2604 67.8 79.4205 67.94 78.1005 67.94" fill="#6A6D6F"></path><path d="M55.5805 42.3291C55.6005 42.0291 55.4105 41.7791 55.2305 41.5691C55.1205 41.5091 55.0106 41.4191 54.9006 41.3391C54.6006 41.1091 54.3205 40.8891 53.9805 41.0691L53.9405 41.0891L53.9206 41.0491C53.7406 40.7791 53.8206 40.5391 53.9006 40.3091C53.9506 40.1691 54.0005 40.0191 53.9805 39.8591C53.7905 39.3991 52.9006 39.3691 52.3006 39.3491C52.1406 39.3491 52.0106 39.3491 51.9006 39.3291L50.4905 40.3391H50.4705C50.3205 40.2991 50.1605 40.2091 50.0105 40.1291C49.8705 40.0491 49.7305 39.9691 49.5905 39.9391V39.9591C49.5405 40.0291 49.5006 40.1091 49.4206 40.1491C49.4306 40.2491 49.4505 40.3591 49.4705 40.4691C49.5405 40.8591 49.6105 41.2591 49.5005 41.5791C49.6105 41.6991 49.6406 41.8391 49.6606 41.9691C49.7006 42.1291 49.7305 42.2591 49.8905 42.3291L49.9306 42.3491L49.9106 42.3891C49.8606 42.5291 49.7305 42.5791 49.6205 42.6291C49.5705 42.6491 49.5305 42.6691 49.4905 42.6891C49.2105 42.8791 48.9006 42.6891 48.6506 42.5391C48.6206 42.5191 48.5806 42.4991 48.5506 42.4791C48.5506 42.5291 48.5505 42.6491 48.5705 42.9191C48.5705 42.9491 48.5705 42.9691 48.5705 42.9791C48.5705 43.0391 48.5606 43.0891 48.5406 43.1391C48.5306 43.1691 48.5206 43.1991 48.5206 43.2291C48.5006 43.4891 48.5605 43.7491 48.6105 44.0091C48.6505 44.2291 48.7005 44.4591 48.7005 44.6891C48.7005 45.2491 48.7006 46.1891 48.6806 47.0991C48.6706 47.8191 48.6606 48.4891 48.6606 48.9291C48.6606 49.0391 48.6606 49.1591 48.6606 49.2691C48.6606 49.3491 48.6606 49.4291 48.6606 49.4991C48.6606 49.5291 48.6606 49.5791 48.6806 49.6391C48.7006 49.7991 48.7306 49.9791 48.6806 50.0791C48.4406 50.5191 48.6405 50.9791 48.8305 51.4191C48.8905 51.5691 48.9605 51.7291 49.0105 51.8791C49.0505 51.9191 49.0805 51.9791 49.1105 52.0391C49.2305 52.2391 49.3306 52.3791 49.5306 52.3291C49.7506 52.2691 49.8005 52.0391 49.8305 51.8291C49.6905 51.3091 49.5405 50.7891 49.3905 50.2791L49.2706 49.8491C49.2506 49.1991 49.1805 45.8991 49.3905 44.2591V44.2391C49.5205 44.0791 49.7005 44.0291 49.9405 44.0791C50.1405 44.1691 50.6906 44.1091 50.9106 44.0491C50.9406 44.0491 50.9705 44.0291 51.0005 44.0191C51.0805 43.9891 51.1605 43.9591 51.2405 43.9791C51.4005 44.0091 51.4206 44.0691 51.4106 44.1891C51.4106 44.2091 51.4106 44.2391 51.4106 44.2591C51.4206 44.5991 51.2105 44.8491 51.0105 45.0991C50.7805 45.3791 50.5606 45.6491 50.6506 46.0591C51.1306 46.3391 50.9305 47.4291 50.8305 48.0191C50.8105 48.1491 50.7906 48.2491 50.7806 48.3091V48.3291C50.4106 49.0891 50.9606 49.5791 51.5506 50.0991C51.7706 50.2891 51.9906 50.4891 52.1606 50.6991C52.2906 50.8091 52.6505 50.8291 52.9705 50.8391C53.2705 50.8491 53.5605 50.8691 53.7005 50.9591L53.7305 50.9791V51.0091C53.6405 51.4391 53.7706 51.7991 54.1806 52.1991C54.3406 52.2691 54.6006 52.2991 54.7706 52.2591C55.0506 52.1791 55.1205 51.9491 55.2005 51.7091C55.2205 51.6291 55.2506 51.5591 55.2806 51.4791C55.3706 49.5091 55.4406 46.6591 55.3106 45.1091C55.3806 44.7291 55.3506 44.3291 55.3106 43.9391C55.3006 43.8091 55.2906 43.6791 55.2806 43.5591C55.2606 43.2991 55.3506 43.0791 55.4306 42.8691C55.5006 42.6991 55.5705 42.5391 55.5805 42.3491V42.3291ZM51.4206 42.0591C51.2606 42.0091 51.2205 41.6091 51.2405 41.4991C51.2605 41.3991 51.1905 41.2791 51.1105 41.1591C51.0405 41.0491 50.9705 40.9291 50.9605 40.8091C50.9905 40.4391 51.3106 40.1091 51.5506 39.8991H51.5705C51.5705 39.8991 52.3705 39.7191 52.6305 39.8991C52.6805 39.9291 52.7105 39.9691 52.7105 40.0191V40.0491C52.5805 40.3991 52.5205 40.7791 52.4505 41.1491C52.4205 41.3491 52.3805 41.5491 52.3405 41.7491V41.7791L51.4206 42.0791H51.4006L51.4206 42.0591ZM53.7005 49.6091V49.7091L53.6205 49.6391C53.4605 49.4791 53.1605 49.3191 52.8405 49.1591C52.1505 48.7991 51.3605 48.3791 51.4905 47.7291V47.6691L51.5606 47.6891C51.8406 47.7991 52.0505 47.8091 52.2505 47.7191C52.5605 47.5891 52.4806 46.9391 52.4206 46.4691C52.3906 46.2591 52.3705 46.0691 52.3805 45.9491C52.1605 45.7091 51.8405 45.6391 51.5105 45.5691H51.4405L51.4705 45.4991C51.5705 45.3191 51.6806 45.1291 51.7906 44.9391C52.0606 44.4691 52.3406 43.9891 52.5606 43.5791V43.5591H52.5905C52.6605 43.5391 52.7705 43.5091 52.8805 43.4691C53.2205 43.3691 53.6806 43.2391 53.9206 43.2491H53.9605V43.2991C54.1105 45.0791 53.8105 48.3691 53.6905 49.6191L53.7005 49.6091Z" fill="#6A6D6F"></path><path d="M56.7103 38.0397C56.5203 37.6797 56.1303 37.6097 55.7303 37.5397C55.6103 37.5197 55.4804 37.4997 55.3604 37.4697C53.6304 37.9397 52.3204 38.2097 51.3604 38.3097C51.0604 38.3397 50.7103 38.3197 50.3403 38.3097C49.6203 38.2797 48.8804 38.2397 48.4004 38.5197C48.4204 38.7797 48.4804 39.0897 48.7604 39.3497C49.5304 39.9497 50.3704 39.6297 51.1804 39.3297C51.5104 39.1997 51.8304 39.0897 52.1204 39.0397C52.5404 38.9897 53.0004 38.9497 53.4904 38.9097C54.5304 38.8197 55.6004 38.7297 56.4304 38.5597L56.4603 38.5297C56.6103 38.4097 56.7703 38.2797 56.7003 38.0497L56.7103 38.0397Z" fill="#6A6D6F"></path><path d="M44.8902 43.6393C44.4502 43.2093 44.0401 42.8093 43.4401 42.7793C43.1001 43.3793 43.4402 43.8993 43.8002 44.4493C44.0102 44.7693 44.2202 45.0893 44.3002 45.4393H44.3201C44.5201 45.4393 44.6801 45.5393 44.8401 45.6293C44.9901 45.7193 45.1301 45.8093 45.3201 45.8093C45.5301 45.8393 45.7002 45.8493 45.8102 45.6993C45.9602 45.2793 45.9702 44.6793 45.6402 44.2793C45.3602 44.1093 45.1102 43.8693 44.8802 43.6293L44.8902 43.6393Z" fill="#6A6D6F"></path><path d="M44.9498 50.7796C45.3098 51.1996 45.6798 51.6396 46.2198 51.4996C46.4398 51.4496 46.4999 51.2496 46.5599 51.0596C46.4399 50.8496 46.5198 50.6796 46.5898 50.5396C46.6598 50.3796 46.7199 50.2696 46.5499 50.1196C46.3599 49.9696 46.1699 49.8196 45.9899 49.6696C45.5899 49.3396 45.2199 49.0296 44.7999 48.7896C44.6699 48.7896 44.5399 48.7496 44.3999 48.6996C44.1099 48.6096 43.9298 48.5696 43.8398 48.7396C43.9098 49.3096 44.1898 49.8796 44.7198 50.5196C44.7898 50.5996 44.8698 50.6896 44.9498 50.7796Z" fill="#6A6D6F"></path><path d="M70.5901 51.1194C70.4401 51.0294 70.3301 50.9494 70.2701 50.8894L70.2301 50.8494L70.2802 50.8094C71.0402 50.2194 71.8502 48.9294 71.8002 48.0694C71.7402 47.1294 71.0301 47.0594 70.4001 46.9994H70.3601C70.0101 46.9494 69.6802 46.9094 69.4302 46.7394L69.3901 46.7094L69.4202 46.6694C69.6402 46.3994 69.9701 46.1694 70.3201 45.9194L70.3501 45.8994C71.0401 45.4294 71.8101 44.8894 71.7501 43.9794L71.7301 43.9194C71.6001 43.5694 71.2101 43.3594 70.8201 43.4294L70.7501 43.4594C70.6201 43.5394 70.4201 43.5494 70.2501 43.5494H69.9401C69.6901 43.5494 69.4101 43.5594 69.1901 43.7194C68.7901 43.9694 68.1602 43.9594 67.5502 43.6994L67.5201 43.6794H67.4202C67.0902 43.6994 66.7501 43.7294 66.6201 43.9694C66.5501 44.0994 66.5702 44.2494 66.6602 44.4094C66.9602 44.9494 67.3201 45.2094 67.7501 45.2094C68.1801 45.2094 68.6201 44.9294 69.0001 44.6794C69.3201 44.4794 69.6701 44.2494 70.0201 44.1894L70.1101 44.1694L70.0801 44.2494C70.0801 44.2494 70.0602 44.3094 70.0602 44.3594V44.3794C69.3902 45.2194 68.2201 46.0394 67.1901 46.7594L67.0101 46.8894C66.8501 46.9994 66.7002 47.1094 66.5502 47.2194L66.4901 47.2794C66.4201 47.3894 66.2502 47.4894 66.0502 47.5994H66.0302C65.7302 47.7694 65.3701 47.9694 65.3301 48.3694V48.5194L65.4501 48.5694C65.6001 48.6294 65.6802 48.7494 65.7802 48.9494C65.9002 49.1794 66.0702 49.5094 66.5502 49.5094H66.6101L66.6501 49.4794C66.9601 49.2794 67.2801 49.0294 67.6401 48.7594C68.2101 48.3094 68.8502 47.8094 69.5402 47.4994C69.6702 47.4194 69.9301 47.4794 70.0801 47.6194V47.6394C70.3201 48.2794 69.6501 49.4594 69.0801 50.0194H69.0502C68.8802 50.0594 68.3602 50.0194 68.0602 50.0094H67.9601C67.7001 49.9794 67.4301 49.9694 67.2001 49.9694C66.9101 49.9694 66.7101 49.9994 66.5801 50.0594L66.4501 50.1194L66.4701 50.2694C66.5101 50.5194 66.8401 50.7694 67.9401 51.4094L67.9701 51.4294C68.0901 51.4994 68.1801 51.5494 68.2401 51.5894L68.2802 51.6194L68.5502 51.6394C68.8102 51.6594 69.1501 51.6894 69.4801 51.6894C69.9501 51.6894 70.3001 51.6394 70.5901 51.5294L70.9302 51.3794L70.5901 51.1694V51.1194Z" fill="#6A6D6F"></path><path d="M65.3704 45.2693C66.6704 43.1093 68.0104 40.8893 70.6704 39.7793L70.7804 39.7293V39.4093L70.7504 39.3593C70.3704 38.8293 69.7304 38.5393 69.0204 38.5693H68.9603L68.9104 38.6193C68.7904 38.7293 68.6504 38.8193 68.5504 38.8793L68.4904 38.9193L68.4403 38.6093C68.3903 38.2493 68.2004 37.9593 68.0104 37.6793L67.9104 37.5293L67.7504 37.3893C67.5504 37.2393 67.2804 37.0293 66.8704 37.0293C66.8204 37.0293 66.7604 37.0293 66.6704 37.0393C66.4804 37.0893 66.3204 37.2393 66.2704 37.4293C66.2304 37.6093 66.2704 37.7893 66.3904 37.8893C66.9804 38.6393 67.5204 38.9993 68.0604 38.9993H68.4004L68.1304 39.0893C67.4704 39.3493 66.7003 39.3893 65.9603 39.4293C65.2803 39.4693 64.5703 39.4993 63.9803 39.6893C63.6903 39.7293 63.4104 39.7193 63.1804 39.6993C63.0304 39.6993 62.9004 39.6893 62.7804 39.6893C62.5304 39.6893 62.1504 39.7193 61.8104 39.9393L61.7404 39.9893L61.7203 40.0693C61.6503 40.4693 61.8004 40.7493 62.1504 40.9193C62.4504 40.9993 62.7503 41.0393 63.0803 41.0393C63.8003 41.0393 64.4404 40.8393 65.0604 40.6593C65.6504 40.4793 66.2604 40.2893 66.9204 40.2893C67.0204 40.2893 67.1203 40.2893 67.2303 40.2993H67.2804V40.4393L66.0004 42.6093L63.2203 46.5293C62.6203 47.1293 62.1904 47.8193 61.7704 48.4793L61.7404 48.5193C61.1304 49.4993 60.5604 50.4093 59.5304 51.0793L59.4004 51.1693L59.4603 51.3193C59.5003 51.4193 59.5304 51.5193 59.5604 51.6193C59.6904 52.0293 59.8604 52.5893 60.5004 52.6693H60.6204L63.1704 48.4593C64.0104 47.5093 64.6903 46.3793 65.3503 45.2893L65.3704 45.2693Z" fill="#6A6D6F"></path><path d="M29.3506 44.0796C29.2506 44.0996 29.1306 44.0796 29.0206 44.0596C28.8506 44.0296 28.6806 43.9996 28.6006 44.0896C28.4506 44.3696 28.6606 44.7096 28.8006 44.9396C29.0406 44.8196 29.9006 44.5996 29.9106 44.5996C29.9606 44.5996 30.0105 44.5796 30.0705 44.5696C30.2005 44.5396 30.3306 44.5196 30.4606 44.5196H30.4906C30.6506 44.5396 30.8106 44.5696 30.9606 44.5996C31.0706 44.6196 31.1906 44.6496 31.3006 44.6696C31.6206 44.7096 32.0706 44.9596 32.2906 45.2996C32.4206 45.4996 32.4506 45.7096 32.3906 45.9196C32.3606 46.0296 32.3306 46.1496 32.3106 46.2696C32.2406 46.6396 32.1606 47.0196 31.8506 47.1896C31.6906 47.2796 31.4906 47.2896 31.3006 47.2996C31.2406 47.2996 31.1806 47.2996 31.1206 47.3096C31.1006 47.3096 31.0706 47.3096 31.0406 47.3196C30.8906 47.3396 30.5406 47.3896 30.4906 47.4896C30.4706 47.5396 30.4906 47.5696 30.5606 47.6396C30.5906 47.6696 30.6206 47.6996 30.6506 47.7396L31.7406 47.9396C31.8606 48.0196 31.9406 48.1196 32.0206 48.2096C32.1206 48.3396 32.2106 48.4396 32.3806 48.4796C33.1106 48.1696 33.9506 48.0896 34.7606 48.0196C35.4306 47.9596 36.1206 47.8996 36.7506 47.6996C36.6906 47.4796 36.5006 47.3496 36.3006 47.2196C36.1206 47.0996 35.9305 46.9696 35.8305 46.7696V46.7396C35.8705 46.1596 36.2606 45.7096 36.6406 45.2696C36.8306 45.0496 37.0106 44.8396 37.1506 44.6196C37.2406 44.5196 37.3306 44.4496 37.4306 44.3696C37.6806 44.1696 37.9206 43.9796 37.8606 43.5796C37.7906 43.4796 37.7206 43.3796 37.6506 43.2696C37.3706 42.8496 37.0806 42.4096 36.6006 42.3496C36.2906 42.6196 35.9006 42.6896 35.5206 42.7596C35.2406 42.8096 34.9806 42.8596 34.7406 42.9796H34.7306C34.4406 43.0396 34.1406 43.0996 33.8506 43.1596C33.4706 43.2396 33.0706 43.3296 32.6806 43.3896C32.4006 43.4296 32.1005 43.4696 31.8205 43.4996C31.2505 43.5596 30.6606 43.6296 30.1306 43.7996C30.0306 43.8296 29.9305 43.8796 29.8305 43.9196C29.6805 43.9896 29.5306 44.0496 29.3706 44.0796H29.3506ZM32.5006 44.2396H32.5306C33.0406 44.0596 33.6506 43.8896 34.3406 43.9196C34.5706 43.6996 34.8206 43.9296 35.0106 44.0996C35.0506 44.1396 35.0906 44.1696 35.1206 44.1996H35.1406V44.2396C35.1406 44.5896 35.1206 44.6896 35.0206 44.9696V44.9896C34.8406 45.1596 34.7006 45.4296 34.5606 45.7196C34.3006 46.2496 34.0306 46.7996 33.4706 46.7996H33.3906V46.7696C33.2806 46.5296 33.3706 46.2496 33.4606 45.9696C33.6006 45.5096 33.7406 45.0796 33.1406 44.7996C33.0706 44.7496 32.9906 44.7196 32.9006 44.6896C32.7006 44.6096 32.4706 44.5196 32.5006 44.2696V44.2396Z" fill="#6A6D6F"></path><path d="M24.7203 46.4595L24.6604 46.3795C24.5404 46.2195 24.4003 46.0495 24.2103 45.9395C24.1503 45.8995 24.0804 45.8795 24.0404 45.8695H24.0203C23.9003 45.8395 23.7404 45.8295 23.5304 45.8595C23.4704 45.8595 23.4103 45.8795 23.3503 45.8795C23.1803 45.8795 22.4004 45.9695 22.1804 45.9895L21.6903 46.0595C21.2003 46.1295 20.7403 46.1895 20.2703 46.2695C20.2403 46.2695 20.2104 46.2695 20.1804 46.2795C20.1404 46.2795 20.1103 46.2895 20.0703 46.2995C19.8003 46.3495 19.4203 46.3895 19.2603 46.3195L19.2103 46.2995L19.2403 46.2495C19.3903 45.8495 19.6004 45.3095 20.0304 45.2395C20.0704 45.2395 20.1503 45.2395 20.2203 45.2395C20.3903 45.2395 20.5004 45.2495 20.5604 45.2695C20.6704 45.2995 20.9604 45.3895 21.1604 45.3295C21.3204 45.2795 21.4303 45.1595 21.4503 45.0095C21.5003 44.6995 21.1904 44.3395 21.0304 44.2295C20.8204 44.0795 20.5703 44.1395 20.4903 44.1695H20.4503C20.4503 44.1695 20.4103 44.1995 20.3903 44.1995C20.3503 44.1995 20.2603 44.1795 20.1903 44.1695H20.1303L20.1604 44.0995C20.1604 44.0995 20.1704 44.0795 20.1804 44.0795C20.2304 44.0095 20.2803 43.9395 20.3503 43.7995C20.4503 43.5595 20.4604 43.3995 20.1604 43.2295C20.0804 43.1895 20.0103 43.1495 19.9503 43.1195C19.8803 43.0895 19.8203 43.0595 19.7603 43.0295L19.6103 42.9295H19.7503C19.7503 42.9295 19.7904 42.9095 19.8104 42.9095C19.8304 42.9095 19.8603 42.9095 19.8803 42.9095C19.9103 42.9095 19.9403 42.8995 19.9703 42.8895C20.0203 42.8795 20.0703 42.8695 20.1203 42.8595H20.1604C20.2604 42.8295 20.3703 42.7995 20.4803 42.7895C20.5503 42.7895 20.6103 42.7395 20.6403 42.6695C20.7603 42.4095 20.5803 42.2395 20.4903 42.1495C20.4703 42.1295 20.4404 42.1095 20.4304 42.0995V42.0795C20.4304 42.0795 20.3903 42.0195 20.3703 42.0095C20.1603 41.8195 19.8803 41.7295 19.5203 41.7295C19.2703 41.7295 19.0104 41.7795 18.7904 41.8195H18.6704C18.6704 41.8195 18.6103 41.8095 18.5803 41.7995L18.5103 41.7795L18.5604 41.7195C18.8504 41.4095 19.0304 40.9595 19.1604 40.6295C19.2104 40.5195 19.2504 40.4195 19.2804 40.3395C19.3004 40.2895 19.3203 40.2395 19.3503 40.1895C19.4703 39.8995 19.5703 39.6495 19.8303 39.7395C19.9203 39.7795 20.0203 39.7995 20.1203 39.8195H20.1704C20.2304 39.8395 20.3003 39.8595 20.3603 39.8795C20.5503 39.9295 20.7503 40.0195 20.9403 40.1195C21.3403 40.3095 21.7503 40.5095 22.2203 40.4495C22.3103 40.4495 22.3804 40.3495 22.4004 40.2595C22.4304 40.1295 22.4603 39.9695 22.3803 39.8095C22.2603 39.5695 22.0503 39.3895 21.8503 39.2395L21.7703 39.1795C21.3503 38.8495 21.2303 38.7795 21.0903 38.7795C20.9603 38.7995 20.8303 38.8095 20.7003 38.8195H20.6103C20.5003 38.8395 20.3904 38.8495 20.2904 38.8595C20.2204 38.8595 20.1503 38.8695 20.0803 38.8795C20.0603 38.8795 20.0504 38.8795 20.0404 38.8795H19.9903V38.8495C19.9503 38.7895 19.9304 38.7095 19.9204 38.6195C19.9104 38.4895 19.9204 38.3695 19.9204 38.2495C19.9204 38.0395 19.9403 37.7795 19.8603 37.5395C19.7103 37.0895 19.2803 36.6795 18.7403 36.4595C18.6703 36.4395 18.5503 36.4595 18.5003 36.5295C18.4103 36.6395 18.3904 36.8695 18.4004 36.9995C18.4204 37.1395 18.4903 37.2595 18.5703 37.3795V37.3995C18.7003 37.6495 18.6903 38.8695 18.3603 39.0495C18.3003 39.0795 18.2603 39.1395 18.2603 39.1995C18.2603 39.2595 18.2803 39.3295 18.3303 39.3695L18.4603 39.4795V39.5095C18.3803 39.7295 18.3203 39.9695 18.2603 40.2295L18.2203 40.3795C18.0903 40.8895 17.9704 41.4195 17.8004 41.7795C17.6504 41.9995 17.3503 42.1295 16.8703 42.1895H16.8403L16.8203 42.1695C16.6703 41.9595 16.5603 41.6695 16.4503 41.3895V41.3595C16.3503 41.1095 16.2503 40.8695 16.1403 40.6595L16.1203 40.6195L16.1604 40.5995C16.2804 40.5295 16.4603 40.4395 16.6003 40.3695C16.6603 40.3395 16.7103 40.3195 16.7503 40.2995L16.8803 40.2395C17.0203 40.1695 17.0703 40.1495 17.1003 40.1195C17.2603 39.9895 17.2703 39.8495 17.2603 39.7695C17.2203 39.5295 16.9503 39.4195 16.8403 39.3795C16.6903 39.3195 16.5303 39.2895 16.4403 39.2795C16.4203 39.2795 16.3703 39.2795 16.3303 39.2795H16.0203L16.0003 39.2595C15.8703 39.0295 15.7703 38.5795 15.7203 38.3395V38.2895C15.6903 38.1995 15.6804 38.1295 15.6604 38.0995C15.6004 37.9095 15.4603 37.7895 15.3403 37.6895L15.2703 37.6195C15.0803 37.4295 14.9103 37.3295 14.7603 37.2995C14.7103 37.2895 14.6503 37.2995 14.6003 37.3295C14.5603 37.3595 14.5303 37.4095 14.5203 37.4695C14.5003 37.6295 14.5503 37.7695 14.5903 37.8895V37.9195C14.6203 37.9695 14.6403 38.0195 14.6403 38.0795C14.6403 38.1295 14.6604 38.1795 14.6704 38.2295C14.6704 38.2795 14.6903 38.3295 14.6903 38.3795C14.7203 38.5995 14.7603 38.8595 14.8403 39.1095L14.8603 39.1895C14.9503 39.4695 14.9603 39.5395 14.8403 39.7695C14.7603 39.9095 14.2303 40.0695 13.7203 40.0995C13.6703 40.0995 13.5903 40.0995 13.5103 40.0995H13.3303C13.2003 40.0995 13.0403 40.0995 12.8903 40.0995C12.3903 40.0995 12.1103 40.1295 11.9603 40.1895C11.8903 40.2195 11.8403 40.2895 11.8403 40.3695V40.4695C11.8403 40.4695 11.8603 40.5595 11.8903 40.5995C12.0003 40.7295 13.1203 41.3895 13.7203 41.4395C13.9803 41.4295 14.3204 41.3295 14.6504 41.2395C14.8204 41.1895 14.9404 41.1595 15.0404 41.1395H15.0703L15.0903 41.1595C15.2703 41.3795 15.4003 41.7895 15.4703 42.3895V42.4395H15.4304C14.8604 42.5595 14.1103 42.5995 13.5903 42.5995C13.5303 42.5995 13.4803 42.6195 13.4503 42.6495C13.4103 42.6795 13.3903 42.7295 13.3903 42.7895V42.9295C13.3903 42.9295 13.3904 42.9995 13.4204 43.0295C13.7404 43.5595 14.5104 43.7595 15.2904 43.5195H15.3403C15.5803 43.7395 15.7503 43.9695 15.8203 44.1895C15.8303 44.3095 15.8503 44.4295 15.8603 44.5495L15.8803 44.7095C15.9603 45.3395 16.0504 45.9895 15.9204 46.5995V46.6295H15.8903C15.6203 46.7295 15.0603 46.7995 14.8303 46.7095C14.5703 46.6095 14.5603 46.4095 14.5703 46.0595C14.5703 45.9895 14.5703 45.9195 14.5703 45.8495V45.8295L15.2103 45.3095C15.2603 45.2695 15.2904 45.1995 15.2804 45.1295C15.2804 45.0595 15.2304 44.9995 15.1704 44.9795C15.0104 44.8995 14.8104 44.9095 14.5604 44.9995H14.5504C14.4804 45.0295 14.4203 45.0595 14.3403 45.0595H14.3104L14.2904 45.0395C14.2904 45.0395 14.2403 44.9595 14.2103 44.9095C14.1803 44.8695 14.1503 44.8195 14.1203 44.7695C13.4203 43.6895 13.0304 43.1795 12.6604 43.1795C12.5304 43.1795 12.4403 43.2195 12.3703 43.2895C12.2703 43.3895 12.2804 43.5195 12.2804 43.6595C12.2804 43.7395 12.3203 43.7995 12.3903 43.8395C12.7503 44.0095 12.8104 44.2095 12.9104 44.5195C12.9504 44.6495 13.0003 44.7895 13.0703 44.9495C13.0803 44.9695 13.0903 44.9895 13.1003 45.0095V45.0295L13.1403 45.0795L13.0803 45.0995C13.0803 45.0995 12.9503 45.1095 12.8903 45.1095H12.8603C12.8603 45.1095 12.7903 45.0895 12.7503 45.0895C12.6403 45.0695 12.5204 45.0595 12.4004 45.0695C12.3804 45.0695 12.3603 45.0695 12.3303 45.0695H12.2703C11.8103 45.0895 11.4004 45.1395 11.4004 45.4795C11.4004 45.5595 11.4503 45.6395 11.5203 45.6595C11.7203 45.7395 11.9203 45.8795 12.0903 45.9895C12.5103 46.2795 12.9304 46.5295 13.4004 46.4295H13.4403C13.4403 46.4295 13.4803 46.4795 13.4903 46.4795H13.5003L13.5304 46.5895C13.5504 46.6395 13.5803 46.7795 13.5903 46.8195V46.8695H13.5504C12.4504 47.0795 11.2704 47.2395 10.0404 47.3495C9.97037 47.3495 9.91034 47.3995 9.88034 47.4495C9.69034 47.7995 9.98037 48.0695 10.1704 48.2495C10.2504 48.3295 10.3303 48.3995 10.3703 48.4695C10.4003 48.5195 10.4604 48.5595 10.5304 48.5695H10.6103C10.8603 48.5695 11.0704 48.4995 11.2804 48.4395L11.4603 48.3795C11.8003 48.2695 13.4003 47.9195 13.8503 47.8395C14.0703 47.7995 14.3604 47.7795 14.6604 47.7495L14.9503 47.7195C15.2303 47.6895 15.5103 47.6695 15.7703 47.6195C15.8103 47.5995 15.8803 47.5895 15.9403 47.5895H15.9603C16.0203 47.5895 16.0404 47.5895 16.0604 47.5995H16.0803V47.6295C16.1203 47.7895 16.1403 48.5995 16.1103 48.7395C16.0903 48.8295 16.0404 49.0695 15.5304 49.0795C15.1004 49.0795 13.5704 49.2495 13.1704 49.3495C12.9504 49.3695 12.6804 49.5495 12.6504 49.7395C12.6404 49.8295 12.6803 49.9195 12.7703 49.9495C13.0903 50.0895 13.4403 50.2295 13.8603 50.2295C13.8903 50.2295 13.9203 50.2295 13.9403 50.2095C14.1303 50.1195 14.6704 50.0595 15.1504 50.0095H15.2003C15.4903 49.9695 15.8204 49.9395 16.0504 49.8895H16.0803L16.1003 49.9095C16.2303 50.0895 16.2104 50.3295 16.1504 50.6395L16.1203 50.8195C16.0603 51.2795 16.0904 52.5195 16.1704 52.8095C16.1704 52.8295 16.1803 52.8595 16.1903 52.8895V52.9095C16.2303 53.0695 16.2903 53.3095 16.5103 53.4295C16.5603 53.4595 16.6203 53.4595 16.6903 53.4295C17.0103 53.2995 17.1403 52.9195 17.2403 52.6395C17.2703 52.5495 17.3003 52.4895 17.3203 52.4395C17.5003 52.0695 17.4504 51.6395 17.4004 51.2695C17.3804 51.1095 17.3603 50.9995 17.3603 50.8895C17.3603 50.7495 17.3204 50.6095 17.2904 50.4795C17.2404 50.2695 17.2003 50.0795 17.2603 49.9095C17.3103 49.7695 17.4203 49.6495 17.8503 49.6495H17.9503C18.1003 49.6495 18.2803 49.6495 18.4703 49.6495H18.5604C18.9704 49.6295 19.2603 49.6295 19.4603 49.6495C19.7103 49.6895 19.9804 49.7495 20.1604 49.7895H20.1903C20.3303 49.8295 20.4603 49.8595 20.5903 49.8895C20.6703 49.9195 20.8203 49.9695 20.9803 49.9695C21.1503 49.9695 21.2903 49.9095 21.3703 49.7895C21.4203 49.7195 21.4203 49.6295 21.3703 49.5595L21.2403 49.3795C20.9603 48.9895 20.6504 48.5495 20.0304 48.4395C20.0004 48.4395 19.9703 48.4395 19.9403 48.4395C19.6203 48.5395 19.1803 48.5695 18.7503 48.5995H18.6903C18.3103 48.6295 17.8303 48.6495 17.4503 48.7495H17.4104L17.3903 48.7295C17.2803 48.5395 17.3103 48.1995 17.3203 47.9095V47.8495C17.3303 47.7095 17.3403 47.5695 17.3303 47.4495V47.4095H17.3703C17.3703 47.4095 17.5003 47.3795 17.6303 47.3695C17.7403 47.3695 18.0304 47.3695 18.4304 47.3695C19.5004 47.3695 20.9703 47.3495 21.3403 47.3195H21.4503C21.9303 47.2695 22.4103 47.2295 22.8703 47.2595C23.5003 47.2895 24.1103 47.4395 24.7603 47.6095H24.8004C24.8504 47.6395 24.9103 47.6195 24.9603 47.5895C25.0103 47.5595 25.0404 47.4995 25.0404 47.4495C25.0704 47.0695 24.8504 46.7395 24.6804 46.5395L24.7203 46.4595ZM19.0504 44.0195C19.0404 44.0895 19.0003 44.1395 18.9603 44.1695H18.9503C18.8903 44.1995 18.6504 44.2295 18.4304 44.2595C18.2304 44.2895 18.0703 44.3195 18.0003 44.3295C17.8803 44.3595 17.7503 44.3995 17.7203 44.5495C17.6903 44.7195 17.8404 44.8295 17.9104 44.8795C18.0404 44.9695 18.2003 45.0095 18.3403 45.0395H18.3703C18.4903 45.0695 18.5603 45.0895 18.6103 45.1095L18.6604 45.1295L18.6303 45.1795C18.6003 45.2295 18.5604 45.2895 18.5304 45.3595L18.4703 45.4595C18.2603 45.8395 18.0004 46.3195 17.5304 46.3795C17.4804 46.3795 17.4404 46.3595 17.4104 46.3195C17.1704 46.0495 17.2103 45.1195 17.2503 44.8295C17.2503 44.7595 17.2903 44.6895 17.3203 44.6095C17.3803 44.4695 17.4404 44.3195 17.4304 44.1395C17.4004 43.8195 17.1703 43.5495 17.0703 43.4495C17.0303 43.3995 16.9804 43.3595 16.9204 43.3195L16.8903 43.2995C16.8903 43.2995 16.8403 43.2695 16.8203 43.2595L16.7403 43.1995L16.8403 43.1795C16.9303 43.1595 17.1304 43.1595 17.2904 43.1695C17.4104 43.1795 17.5004 43.1795 17.5604 43.1695C17.6404 43.1695 17.7804 43.1395 17.9304 43.0995H17.9603C18.1303 43.0595 18.2703 43.0295 18.3303 43.0295C18.4903 43.0295 18.7104 43.2995 18.9104 43.5595L18.9603 43.6295C19.0303 43.7295 19.0904 43.8895 19.0604 44.0295L19.0504 44.0195Z" fill="#6A6D6F"></path><path d="M30.2605 39.8692C30.3005 39.9392 30.3505 39.9992 30.4105 40.0592C30.4605 40.1192 30.5005 40.1692 30.5405 40.2292C30.7605 40.5492 30.6805 40.8992 30.6105 41.2392C30.5905 41.3092 30.5804 41.3792 30.5704 41.4492C30.5204 41.7192 30.5305 42.3692 30.7705 42.6392C30.8405 42.7192 30.9305 42.7592 31.0305 42.7592C31.1805 42.7592 31.3805 42.6592 31.5405 42.5792C31.5905 42.5592 31.6305 42.5392 31.6705 42.5192C32.1005 42.3292 32.5805 42.2492 33.0505 42.1792H33.1105C33.2505 42.1492 33.3905 42.1192 33.5205 42.0892C33.6805 42.0592 33.8405 42.0192 34.0105 41.9992C34.1505 41.9792 34.3004 41.9792 34.4404 41.9692C34.6304 41.9692 34.8205 41.9692 35.0105 41.9192C35.3405 41.8492 35.4905 41.5992 35.6505 41.3092C35.7605 41.0992 36.1504 40.3592 36.5704 39.9592C36.6104 39.9192 36.6604 39.8792 36.7004 39.8392C36.8304 39.7292 36.9605 39.6192 37.0305 39.4692C37.1205 39.2692 37.0505 39.0392 36.9705 38.8192C36.9405 38.7392 36.9105 38.6592 36.8905 38.5692C36.8205 38.3492 36.7605 38.1392 36.6105 37.9692C36.1305 37.3892 35.3705 37.0892 34.6805 37.1992C34.5305 37.2192 34.3905 37.2592 34.2505 37.2892C34.1005 37.3292 33.9405 37.3692 33.7805 37.3892C33.5405 37.4292 33.2805 37.4292 33.0405 37.4392C32.7305 37.4492 32.4105 37.4592 32.1005 37.5292C31.8205 37.5892 31.1505 37.7192 31.1505 38.0992C31.1505 38.2492 31.2904 38.3292 31.4404 38.4092C31.4704 38.4292 31.5005 38.4392 31.5305 38.4592C31.8405 38.6492 32.1805 38.8592 32.5405 38.9892C32.6005 39.0092 32.6705 39.0492 32.7505 39.0792C32.9705 39.1792 33.2705 39.3192 33.4205 39.2392C33.5205 39.1892 33.6205 39.1292 33.7205 39.0692C34.1705 38.8092 34.6404 38.5492 35.2104 38.5692H35.2405V38.5892C35.5205 39.0392 35.1605 39.3892 34.8505 39.7092C34.7305 39.8192 34.6205 39.9292 34.5505 40.0392C34.2605 40.5892 33.6905 40.9292 32.8105 41.0692H32.7805C32.6405 40.9992 32.4404 40.9892 32.3204 41.0892L32.2905 41.1192L32.1805 41.0092C31.6205 40.4492 30.9304 39.7592 30.1904 39.5292C30.2104 39.6192 30.2805 39.7892 30.2905 39.8192L30.2605 39.8692Z" fill="#6A6D6F"></path><path d="M35.77 52.4095C36.01 52.4095 36.27 52.4095 36.52 52.4095C36.68 52.3995 36.84 52.3495 37 52.3095C37.19 52.2595 37.3799 52.2095 37.5699 52.2095C38.1099 52.1995 38.71 52.1195 39.28 52.0395C39.56 51.9995 39.85 51.9595 40.14 51.9295C40.19 51.8895 40.2599 51.8595 40.3199 51.8295C40.4899 51.7395 40.64 51.6695 40.62 51.4595C40.44 51.2795 40.21 51.2095 39.98 51.1295C39.93 51.1095 39.8699 51.0895 39.8199 51.0795C39.6999 51.0395 39.5 51.0795 39.33 51.0995C39.26 51.1095 39.19 51.1195 39.14 51.1295C39.03 51.1295 38.9201 51.1395 38.8101 51.1495C38.6701 51.1495 38.52 51.1695 38.38 51.1695C38.01 51.1795 37.63 51.1795 37.27 51.1695C36.66 51.1695 36.02 51.1695 35.4 51.2295C35.09 51.2595 34.7599 51.3095 34.4499 51.3495C33.8099 51.4295 33.14 51.5195 32.48 51.5395C32.39 51.5395 32.18 51.5495 31.92 51.5695C30.91 51.6295 30.06 51.6795 29.92 51.5695C29.52 51.2795 29.47 50.6795 29.51 50.2195C29.53 49.9995 29.61 49.7595 29.68 49.5395C29.83 49.0695 29.9699 48.6295 29.6899 48.2595C29.4699 47.9695 29.21 48.0795 28.9 48.2095C28.75 48.2695 28.59 48.3395 28.43 48.3495C28.41 48.3795 28.4 48.4195 28.38 48.4495C28.28 48.6595 28.18 48.8495 28.22 49.0995C28.24 49.2295 28.27 49.3695 28.29 49.5095C28.43 50.3495 28.5799 51.3095 29.1999 51.8295C29.2499 51.8695 29.2801 51.9595 29.3101 52.0595C29.3401 52.1395 29.37 52.2295 29.41 52.2795C29.71 52.5895 30.21 52.5795 30.61 52.5795H30.97C31.33 52.5895 31.69 52.5995 32.05 52.5595C33.1 52.4495 34.21 52.3895 35.38 52.3895C35.51 52.3895 35.63 52.3895 35.76 52.3895L35.77 52.4095Z" fill="#6A6D6F"></path><path d="M46.5305 40.8993C46.6305 40.9293 46.7304 40.9593 46.8204 40.9693C47.0104 40.9993 47.3905 41.0093 47.4305 40.8393C47.5405 40.4493 47.4805 39.9593 47.2505 39.4893C47.2305 39.4393 47.1005 39.3393 47.0105 39.2793C46.9605 39.2493 46.9205 39.2193 46.9005 39.1893C46.6705 38.9993 46.4504 38.8293 46.2104 38.6793C46.1704 38.6593 46.1305 38.6293 46.0905 38.5993C45.8905 38.4693 45.6105 38.2793 45.4105 38.2793C45.3205 38.2793 45.2205 38.2993 45.1805 38.4893C45.1405 38.6593 45.1804 38.8293 45.2004 39.0093C45.2204 39.1293 45.2505 39.2593 45.2505 39.3893C45.2505 39.6493 45.2005 39.9193 45.1105 40.2393C45.1105 40.2693 45.0904 40.3093 45.0804 40.3693C45.0304 40.5893 44.9804 40.7493 44.9404 40.8593C45.0504 40.8193 45.1805 40.7793 45.3105 40.7593C45.4305 40.7593 45.5105 40.7893 45.5905 40.8193C45.6505 40.8393 45.7005 40.8693 45.7705 40.8693C45.8105 40.8693 45.8305 40.8693 45.8605 40.8493C45.8805 40.8393 45.9104 40.8193 45.9504 40.8093C45.9904 40.8093 46.0404 40.7993 46.0804 40.7993C46.2304 40.7993 46.3905 40.8493 46.5405 40.8893L46.5305 40.8993Z" fill="#6A6D6F"></path></svg>