<svg xmlns="http://www.w3.org/2000/svg" width="80" height="37" viewBox="0 0 80 37" fill="none"><path d="M59.1801 14.8295H57.75V0.479492L59.04 0.489487L66.21 10.8495V0.489487H67.64V14.8295H66.35L59.1801 4.46949V14.8295Z" fill="#6A6D6F"></path><path d="M42.84 14.8295L39.29 0.479492L41.66 0.489487L44.2 11.6995L46.87 0.489487H48.01L50.46 10.9195L52.86 0.489487H54.17L50.62 14.8295H49.4399L46.9301 4.08949L44.3199 14.8295H42.84Z" fill="#6A6D6F"></path><path d="M15.76 8.37024H16.85L16.87 8.40024L20.97 14.8702H23.36L18.64 8.03024L18.72 8.01024C20.86 7.50024 22.09 6.05024 22.09 4.03024C22.12 2.82024 21.49 1.69023 20.45 1.09023C19.38 0.490233 18.38 0.490234 16.87 0.490234H13.5V14.8702H15.78V8.37024H15.76ZM15.77 1.56023H16.71C17.06 1.56023 17.41 1.56023 17.76 1.59023C18.09 1.62023 18.42 1.71023 18.72 1.85023C19.32 2.17023 19.7 3.12024 19.7 4.28024C19.7 6.37024 18.6401 7.43024 16.5601 7.43024H15.77V1.56023Z" fill="#6A6D6F"></path><path d="M8.98962 13.1098L9.63965 14.0698L9.57959 14.0998C8.50959 14.7198 7.27968 15.0498 6.04968 15.0698C4.20968 15.0698 2.67964 14.3198 1.62964 12.8998C0.669639 11.5998 0.139648 9.7698 0.139648 7.7498C0.139648 4.0398 2.06963 0.299805 6.36963 0.299805C6.39963 0.299805 6.4396 0.299805 6.4696 0.299805C7.5296 0.299805 8.58968 0.549798 9.54968 1.0198L9.60962 1.0498L9.06958 2.0498L8.99963 2.0198C8.26963 1.6398 7.44963 1.4298 6.61963 1.4198C4.32963 1.4198 2.72961 3.9998 2.72961 7.6998C2.72961 11.9998 4.6696 13.9598 6.4696 13.9598C7.3496 13.9198 8.19969 13.6398 8.92969 13.1598L8.99963 13.1198L8.98962 13.1098Z" fill="#6A6D6F"></path><path d="M31.1698 15.0798C34.6998 15.0798 36.9797 12.0998 36.9797 7.4998C36.9797 4.9698 36.3598 3.0598 35.1398 1.8098C34.1898 0.839799 32.8598 0.299805 31.3998 0.299805C29.7998 0.299805 28.3497 0.949804 27.3197 2.1198C26.1597 3.4298 25.5498 5.3498 25.5498 7.6698V7.7098C25.5498 12.1898 27.7598 15.0798 31.1698 15.0798ZM28.0897 7.7198C28.0897 3.6998 29.2997 1.2998 31.3397 1.2998C33.3797 1.2998 34.4298 3.4998 34.4298 7.6698C34.4298 13.6998 31.7697 14.0098 31.2397 14.0098C29.7897 14.0098 28.0897 12.3698 28.0897 7.7398V7.7098V7.7198Z" fill="#6A6D6F"></path><path d="M79.6794 13.6895V14.8295H72.1094V0.479492L79.5894 0.489487V1.60949H74.4294V6.71949H79.2594V7.84949H74.4294V13.6895H79.6794Z" fill="#6A6D6F"></path><path d="M19.5297 22.6495C18.5197 21.9895 17.4096 21.9395 15.6896 21.9395H11.8896V36.2995H14.1996V29.9594H16.0197C19.6697 29.9594 20.9696 27.7394 20.9696 25.6694C20.9696 24.8994 20.7797 23.4895 19.5197 22.6495H19.5297ZM15.5597 28.8595H14.1996V23.0095H15.6697C15.9597 23.0095 16.2696 23.0094 16.5696 23.0294C16.8996 23.0494 17.2197 23.1394 17.5197 23.2694C18.1197 23.5794 18.4996 24.5195 18.4996 25.6795C18.4996 27.7795 17.5097 28.8494 15.5497 28.8494L15.5597 28.8595Z" fill="#6A6D6F"></path><path d="M56.5693 22.8494L49.5994 35.0894H56.9493V36.2995H46.8994V35.3995L53.9294 23.0994H47.3293V21.9395H56.5693V22.8494Z" fill="#6A6D6F"></path><path d="M39.6895 21.9395H38.5195L33.5195 36.2995H34.9395L36.5895 31.2595H40.5496L42.2395 36.2995H44.7495L39.6995 21.9395H39.6895ZM37.0995 30.2495L38.7295 25.1495L40.3295 30.2495H37.0995Z" fill="#6A6D6F"></path><path d="M26.2395 35.1395H31.3395V36.2995H23.9395V21.9395H26.2395V35.1395Z" fill="#6A6D6F"></path><path d="M64.0996 21.9395L59.0996 36.2995H60.5197L62.1697 31.2595H66.1296L67.8196 36.2995H70.3296L65.2797 21.9395H64.1096H64.0996ZM62.6797 30.2495L64.3097 25.1495L65.9097 30.2495H62.6797Z" fill="#6A6D6F"></path></svg>