<svg xmlns="http://www.w3.org/2000/svg" width="203" height="57" viewBox="0 0 203 57" fill="none"><path d="M117.1 40.8589C117.4 40.8789 118.33 40.8589 118.33 42.0089V54.3789C118.33 55.5289 117.4 55.4989 117.1 55.5289V55.9689H121.52V55.5289C121.22 55.4989 120.29 55.5289 120.29 54.3789V42.0089C120.29 40.8589 121.22 40.8889 121.52 40.8589V40.4189H117.1V40.8589Z" fill="#6A6D6F"></path><path d="M0.149414 38.7691C0.469414 38.7891 1.46942 38.7691 1.47942 40.0091V54.2591C1.47942 55.5091 0.469414 55.4691 0.149414 55.4991V55.9791H4.83942V55.4991C4.51942 55.4791 3.51941 55.4991 3.50941 54.2591V40.0091C3.50941 38.7691 4.51942 38.7991 4.83942 38.7691V38.2891H0.149414V38.7691Z" fill="#6A6D6F"></path><path d="M202.08 53.4289C202.06 53.7289 202.08 54.659 200.93 54.659H197V42.0089C197 40.8589 197.93 40.8889 198.23 40.8589V40.4189H193.81V40.8589C194.11 40.8789 195.04 40.8589 195.04 42.0089V54.3789C195.04 55.5289 194.11 55.4989 193.81 55.5289V55.9689H202.52V53.4289H202.08Z" fill="#6A6D6F"></path><path d="M81.1393 40.1094C76.3093 40.1094 74.4893 44.6794 74.4893 48.2094C74.4893 51.7394 76.3593 56.2994 80.9793 56.2994C85.0693 56.2994 87.6493 52.5594 87.6493 47.8394C87.6493 43.1194 85.1493 40.1194 81.1393 40.1194V40.1094ZM81.6793 55.1194H81.6493C78.5593 55.1194 76.5393 51.7794 76.5393 47.5694C76.5393 42.5294 78.7293 41.2394 80.6593 41.2394C83.4093 41.2394 85.5693 44.0494 85.5693 48.5894C85.5693 54.4394 82.8493 55.1194 81.6793 55.1194Z" fill="#6A6D6F"></path><path d="M134.229 40.8689C134.529 40.8889 135.449 40.8689 135.459 42.0189V52.409L127.479 40.4289H124.859V40.8689C125.159 40.8889 126.089 40.8689 126.089 42.0189V54.3889C126.089 55.5489 125.159 55.5089 124.859 55.5389V55.979H128.709V55.5389C128.409 55.5089 127.489 55.5389 127.479 54.3889V44.0689L135.459 55.9689H136.849V42.0089C136.849 40.8589 137.779 40.8889 138.079 40.8589V40.4189H134.229V40.8589V40.8689Z" fill="#6A6D6F"></path><path d="M163.46 40.8689C163.76 40.8889 164.69 40.8689 164.69 42.0189V52.409L156.71 40.4289H154.09V40.8689C154.39 40.8889 155.32 40.8689 155.32 42.0189V54.3889C155.32 55.5489 154.39 55.5089 154.09 55.5389V55.979H157.94V55.5389C157.64 55.5089 156.72 55.5389 156.71 54.3889V44.0689L164.69 55.9689H166.08V42.0089C166.08 40.8589 167.01 40.8889 167.31 40.8589V40.4189H163.46V40.8589V40.8689Z" fill="#6A6D6F"></path><path d="M35.0898 40.8597C35.3798 40.8797 36.3199 40.8597 36.3199 42.0097V54.3797C36.3199 55.5297 35.3898 55.4997 35.0898 55.5297V55.9697H44.4598V53.4297H44.0198C43.9998 53.7297 44.0198 54.6597 42.8698 54.6597H38.2798V48.6397H41.9898C43.1398 48.6397 43.1099 49.5697 43.1399 49.8697H43.5798V46.2897H43.1399C43.1199 46.5897 43.0498 47.3197 41.9898 47.3197H38.2899V41.7397H42.8799C44.0299 41.7397 43.9998 42.6697 44.0298 42.9697H44.4698V40.4297H35.0999V40.8697L35.0898 40.8597Z" fill="#6A6D6F"></path><path d="M149.009 41.7397C150.159 41.7397 150.129 42.6697 150.159 42.9697H150.599V40.4297H141.229V40.8697C141.519 40.8897 142.459 40.8697 142.459 42.0197V54.3897C142.459 55.5397 141.529 55.5097 141.229 55.5397V55.9797H150.599V53.4397H150.159C150.139 53.7397 150.159 54.6697 149.009 54.6697H144.419V48.6497H148.129C149.279 48.6497 149.249 49.5797 149.279 49.8797H149.719V46.2997H149.279C149.249 46.5997 149.189 47.3297 148.129 47.3297H144.419V41.7497H149.009V41.7397Z" fill="#6A6D6F"></path><path d="M68.5996 54.8194C66.1396 54.8194 62.8096 52.7194 62.8096 47.2594C62.8096 43.3394 64.3296 39.2794 67.9596 39.2794C71.9796 39.2794 72.4196 42.3694 72.4496 42.8294H72.9296V38.8494C71.4596 38.4094 69.4496 38.1494 68.3096 38.1494C63.0096 38.1494 60.5596 41.8594 60.5596 47.3094C60.5596 52.2494 63.2796 56.1394 68.3496 56.1394C69.3696 56.1394 71.4896 55.8894 72.6496 55.2194L73.1696 51.8394L72.6996 51.7694C71.8496 54.3194 70.2196 54.8094 68.5896 54.8094L68.5996 54.8194Z" fill="#6A6D6F"></path><path d="M177.91 41.7397C179.06 41.7397 179.03 42.6697 179.06 42.9697H179.5V40.4297H168.93V42.9697H169.37C169.39 42.6697 169.37 41.7397 170.52 41.7397H173.25V54.3897C173.25 55.5397 172.32 55.5097 172.02 55.5297V55.9697H176.44V55.5297C176.14 55.5097 175.21 55.5297 175.21 54.3797V41.7397H177.91Z" fill="#6A6D6F"></path><path d="M190.989 53.7297L186.159 40.4297H184.869L180.019 53.7497C179.379 55.3797 178.729 55.5397 178.399 55.5397V55.9797H182.159V55.5397C181.869 55.5097 180.929 55.5397 181.339 54.3897L182.669 50.7497H187.899L189.229 54.3897C189.639 55.5397 188.699 55.5097 188.409 55.5397V55.9797H192.759V55.5397C192.429 55.5397 191.619 55.3597 190.979 53.7297H190.989ZM183.119 49.5297L185.289 43.5697L187.459 49.5297H183.119Z" fill="#6A6D6F"></path><path d="M17.1093 40.8689C17.4093 40.8889 18.3293 40.8689 18.3393 42.0189V52.409L10.3593 40.4289H7.73926V40.8689C8.03926 40.8889 8.96927 40.8689 8.96927 42.0189V54.3889C8.96927 55.5489 8.03926 55.5089 7.73926 55.5389V55.979H11.5893V55.5389C11.2893 55.5089 10.3693 55.5389 10.3593 54.3889V44.0689L18.3393 55.9689H19.7293V42.0089C19.7293 40.8589 20.6593 40.8889 20.9593 40.8589V40.4189H17.1093V40.8589V40.8689Z" fill="#6A6D6F"></path><path d="M22.5693 42.9697H23.0093C23.0393 42.6697 23.0093 41.7397 24.1593 41.7397H26.8893V54.3897C26.8893 55.5397 25.9593 55.5097 25.6593 55.5297V55.9697H30.0793V55.5297C29.7793 55.5097 28.8593 55.5297 28.8493 54.3797V41.7397H31.5493C32.6993 41.7397 32.6693 42.6697 32.6993 42.9697H33.1393V40.4297H22.5693V42.9697Z" fill="#6A6D6F"></path><path d="M99.0995 40.8689C99.3995 40.8889 100.329 40.8689 100.329 42.0189V52.409L92.3495 40.4289H89.7295V40.8689C90.0295 40.8889 90.9495 40.8689 90.9595 42.0189V54.3889C90.9595 55.5489 90.0295 55.5089 89.7295 55.5389V55.979H93.5795V55.5389C93.2795 55.5089 92.3595 55.5389 92.3495 54.3889V44.0689L100.329 55.9689H101.719V42.0089C101.719 40.8589 102.649 40.8889 102.949 40.8589V40.4189H99.0995V40.8589V40.8689Z" fill="#6A6D6F"></path><path d="M104.56 42.9697H105C105.02 42.6697 105 41.7397 106.15 41.7397H108.88V54.3897C108.88 55.5397 107.95 55.5097 107.65 55.5297V55.9697H112.07V55.5297C111.77 55.5097 110.84 55.5297 110.84 54.3797V41.7397H113.54C114.69 41.7397 114.66 42.6697 114.69 42.9697H115.13V40.4297H104.56V42.9697Z" fill="#6A6D6F"></path><path d="M53.9799 48.6397C53.9799 48.6397 56.8399 47.5697 56.8399 44.4097C56.8399 42.8597 55.9399 40.4297 51.6599 40.4297H47.3799V40.8697C47.6799 40.8897 48.6099 40.8697 48.6099 42.0197V54.3897C48.6099 55.5397 47.6799 55.5097 47.3799 55.5397V55.9797H51.7999V55.5397C51.4999 55.5097 50.5699 55.5397 50.5699 54.3897V49.1097L52.0599 49.0897C52.7499 50.0897 54.5899 52.6797 55.1699 53.4997C56.7399 55.7397 58.1599 56.2197 59.7099 56.2197C60.1299 56.2197 60.4999 56.1497 60.6199 56.1097V55.6697C60.3799 55.6697 59.7399 55.6697 58.8399 54.8697C56.9799 53.1497 55.7499 51.2397 53.9899 48.6597L53.9799 48.6397ZM50.7899 47.9797H50.5699V41.4597H50.8099C53.7399 41.4597 54.6999 42.5197 54.6999 44.4997C54.6999 45.9497 53.9799 47.9797 50.7899 47.9797Z" fill="#6A6D6F"></path><path d="M101.34 0.0498047C101.34 0.0498047 91.4297 5.3398 91.4297 14.5498C91.4297 23.7598 101.34 29.0498 101.34 29.0498C101.34 29.0498 111.25 23.7598 111.25 14.5498C111.25 5.3398 101.34 0.0498047 101.34 0.0498047ZM105.67 24.5698C103.92 26.3298 102.14 27.4998 101.34 27.9798C100.55 27.4998 98.7897 26.3498 97.0497 24.5998C95.6797 23.2298 94.5897 21.7798 93.8097 20.2798C92.8497 18.4298 92.3697 16.4998 92.3697 14.5498C92.3697 12.5998 92.8497 10.6898 93.7997 8.8498C94.5697 7.3498 95.6497 5.89981 97.0197 4.53981C98.7697 2.77981 100.55 1.60981 101.35 1.12981C102.15 1.61981 103.93 2.78981 105.68 4.53981C107.04 5.90981 108.12 7.3598 108.9 8.8498C109.85 10.6898 110.33 12.6098 110.33 14.5498C110.33 16.4898 109.85 18.4098 108.9 20.2498C108.13 21.7498 107.05 23.1998 105.68 24.5598L105.67 24.5698Z" fill="#6A6D6F"></path><path d="M101.34 2.37012C101.34 2.37012 93.4697 7.14012 93.4697 14.5501C93.4697 21.9601 101.34 26.7301 101.34 26.7301C101.34 26.7301 109.21 21.9601 109.21 14.5501C109.21 7.14012 101.34 2.37012 101.34 2.37012ZM105.15 21.5301V21.8001H97.5297V21.5301C98.0997 21.4801 99.8797 21.5301 99.8897 19.3401V9.77012C99.8897 7.57012 98.1097 7.62012 97.5297 7.58012V7.31012H105.15V7.58012C104.57 7.63012 102.8 7.57012 102.79 9.77012V19.3401C102.79 21.5401 104.57 21.4901 105.15 21.5301Z" fill="#6A6D6F"></path></svg>