<svg xmlns="http://www.w3.org/2000/svg" width="107" height="19" viewBox="0 0 107 19" fill="none"><path d="M103.91 14.1898L94.4502 0.509766H92.2002V18.0798H94.4402V4.50977L103.91 18.0798H106.15V0.509766H103.91V14.1898Z" fill="#6A6D6F"></path><path d="M19.6998 0.509766H17.4697V18.0798H19.6998V0.509766Z" fill="#6A6D6F"></path><path d="M11.3998 0.509766L2.98975 9.28976V0.509766H0.759766V18.0798H2.98975V12.6198L5.85974 9.61977L10.9297 16.5798C10.9297 16.5798 11.9298 18.0798 13.4398 18.0798H14.5698V15.8298H13.4897C13.0797 15.8298 12.6697 15.1498 12.6697 15.1498L7.44977 7.97977L14.5798 0.509766H11.4197H11.3998Z" fill="#6A6D6F"></path><path d="M50.7501 9.77H47.1001V2.76H50.7501C52.9501 2.76 54.7401 4.07 54.7401 6.27C54.7401 8.47 52.9501 9.76 50.7501 9.76M50.7501 0.5H44.8701V18.07H47.1001V12.01H50.7501C54.2001 12.01 57.0001 9.7 57.0001 6.27C57.0001 2.84 54.2001 0.5 50.7501 0.5Z" fill="#6A6D6F"></path><path d="M58.3398 2.81976H63.8898V18.0798H66.1398V2.81976H71.6798V0.509766H58.3398V2.81976Z" fill="#6A6D6F"></path><path d="M80.7495 15.97C77.1895 15.97 74.2995 12.98 74.2995 9.30004C74.2995 5.62004 77.1995 2.61004 80.7495 2.61004C84.2995 2.61004 87.2295 5.61004 87.2295 9.30004C87.2295 12.99 84.3195 15.97 80.7495 15.97ZM80.7495 0.290039C75.9095 0.290039 71.9795 4.33004 71.9795 9.30004C71.9795 14.27 75.9195 18.29 80.7495 18.29C85.5795 18.29 89.5195 14.26 89.5195 9.30004C89.5195 4.34004 85.5795 0.290039 80.7495 0.290039Z" fill="#6A6D6F"></path><path d="M32.3201 9.75977L25.4501 0.509766H23.1201V18.0798H25.3601V4.48976L31.7101 12.8698H32.9201L39.2701 4.48976V18.0798H41.5101V0.509766H39.1801L32.3201 9.75977Z" fill="#6A6D6F"></path></svg>