<svg xmlns="http://www.w3.org/2000/svg" width="64" height="64" viewBox="0 0 64 64" fill="none"><path d="M63.1 23.6496C63.43 21.9296 63.6401 20.1796 63.4101 18.4096C63.3401 17.8696 63.1301 17.4696 62.6401 17.2596C62.1101 17.0396 61.69 17.3796 61.33 17.6896C60.96 18.0096 60.7801 18.4796 60.6401 18.9396C60.2801 20.1296 60.1301 21.3496 60.0601 22.5796C59.9401 24.8196 59.86 27.0696 59.69 29.3096C59.61 30.4896 58.0901 31.7596 56.9001 31.7696C55.9901 31.7696 55.2701 31.0796 54.9901 29.7696C54.5601 27.7496 54.4401 25.7096 54.6801 23.6496C54.7901 22.7096 54.8701 21.7696 54.6401 20.8296C54.3401 19.6196 53.62 19.2696 52.47 19.7496C51.54 20.1396 51.3601 20.9096 51.3301 21.8096C51.3001 22.7296 51.9701 23.4296 51.9901 24.3196C52.0101 25.6496 52.02 26.9896 52.22 28.3196C52.46 29.8896 52.75 31.4496 53.67 32.7896C54.41 33.8596 55.3701 34.1296 56.6401 33.7496C57.7301 33.4296 58.5101 32.6296 59.4201 32.0096C59.5001 32.3596 59.4201 32.6696 59.3701 32.9896C58.9901 35.2196 58.6201 37.4596 58.2901 39.6996C57.8101 42.9896 57.5801 46.2996 57.4301 49.6096C57.2401 53.7296 57.4901 57.8196 57.9001 61.9096C57.9801 62.6896 58.3501 63.4096 59.1301 63.6396C59.9501 63.8796 60.7601 63.6396 61.3101 62.9196C61.8601 62.1896 61.6701 61.4596 61.2601 60.7396C60.9001 60.0996 60.47 59.4996 60.21 58.7896C59.44 56.6596 59.1301 54.4596 59.0101 52.2096C58.7501 47.2796 59.13 42.3896 59.95 37.5296C60.74 32.8396 62.19 28.2996 63.08 23.6396L63.1 23.6496Z" fill="#6A6D6F"></path><path d="M47.3196 19.3096C45.9396 18.5596 44.8296 18.6396 43.1996 19.4396C41.2596 20.4996 40.0796 21.8696 38.4896 23.1896C38.3296 18.3996 38.0496 13.7396 38.1096 9.06959C38.1096 8.23959 38.2196 7.47959 38.6096 6.72959C39.1896 5.61959 39.3896 4.40959 39.3096 3.14959C39.2696 2.57959 39.0996 2.06959 38.8096 1.59959C38.3796 0.929589 37.6696 0.599589 36.9696 0.759589C36.3696 0.899589 36.4296 1.66959 36.3796 2.18959C36.1996 4.16959 36.1297 6.15959 36.1497 8.14959C36.1497 8.88959 36.1997 9.62959 36.0297 10.3796C35.6797 11.9196 35.4396 13.4896 35.1396 15.0496C34.3196 19.2396 34.0796 23.1796 33.0496 27.3196C32.6296 28.9796 31.9696 29.7396 31.0696 30.3096C30.3596 30.7596 29.7896 30.7296 29.3796 30.0096C29.0796 29.4696 28.9797 28.8596 28.8997 28.2496C28.6197 26.1696 28.7397 24.0896 28.8997 21.9996C28.9797 20.8496 28.1796 20.4096 27.1596 20.9896C26.9096 21.1296 26.6896 21.3396 26.4996 21.5496C25.0896 23.0996 24.2196 24.9596 23.4496 26.8696C23.0496 27.6096 21.9196 29.9096 21.6696 30.1496C21.6696 30.1496 21.6696 30.1596 21.6596 30.1696H21.6396C21.4396 30.3596 21.2096 30.4596 20.9796 30.4196C20.3996 30.3296 20.1096 29.5196 20.2196 28.4896C20.2696 28.0096 20.3996 26.6796 20.4196 26.6096C20.5796 24.1096 21.2396 20.1796 21.7696 18.4196C21.9896 17.6896 21.3097 16.8196 20.6497 16.7096C19.8397 16.5796 19.4896 17.0896 19.2696 17.6396C18.5296 19.4896 18.5596 23.3496 18.4296 25.2696C18.1896 27.6196 18.1496 29.6996 18.6996 31.8996C17.7396 31.8596 16.9396 31.4196 16.1896 30.8996C12.3496 28.2896 9.44962 24.7996 6.98962 20.9196C6.66962 20.4096 6.76963 20.2896 7.36963 20.1296C12.3896 18.7996 15.8696 14.4996 16.0096 9.55959C16.0896 6.74959 14.5596 4.51959 12.0396 3.74959C8.11961 2.55959 5.00966 4.06959 3.52966 7.92959C2.46966 10.6896 2.1396 13.5996 1.9096 16.5196C1.8796 16.9296 1.90962 17.2796 1.48962 17.6196C0.29962 18.5896 0.21962 19.8596 1.23962 21.0196C1.59962 21.4296 1.70964 21.8196 1.69964 22.3296C1.67964 24.8396 1.5696 27.3496 1.9096 29.8496C2.0996 31.2596 2.25962 32.6896 3.10962 33.8996C3.37962 34.2796 3.75963 34.6596 4.24963 34.4796C4.79963 34.2796 4.64965 33.7496 4.57965 33.2996C4.11965 30.1596 4.02962 26.9996 4.10962 23.8396C4.10962 23.5396 3.91961 23.0996 4.28961 22.9596C4.72961 22.7996 4.96965 23.1996 5.20965 23.5096C6.87965 25.5996 8.50963 27.7196 10.4396 29.5896C12.1296 31.2196 13.9196 32.7596 16.3096 33.2496C17.1796 33.4296 18.1396 33.7796 18.9396 32.9796C19.3196 33.0196 19.3796 33.2896 19.6996 33.5796C20.0896 34.1096 20.6097 34.3696 21.2797 34.2996C21.9497 34.3096 22.3296 33.8396 22.6696 33.3896C23.5596 32.1796 24.2896 30.8696 24.7896 29.4396C25.3596 28.1896 25.8997 26.9196 26.7097 25.5796C26.8997 27.9796 26.9296 30.1696 27.8296 32.1896C28.6496 33.9996 30.3996 33.7096 31.5996 32.9296C33.5796 31.6396 34.3696 26.2896 34.8596 22.8396C35.6696 17.2196 36.3296 13.3496 36.4496 13.1296C36.6696 13.7496 36.3696 21.2196 36.3096 22.7896C36.2496 24.4996 36.3596 26.2096 35.6596 27.8696C35.3296 28.6396 35.2996 29.5696 35.5796 30.4496C35.9596 31.6496 36.2996 32.8596 36.9096 33.9596C37.3496 34.7496 37.6196 35.9496 39.0096 35.1396C39.0796 35.0996 39.2396 35.2096 39.3596 35.2396C39.9396 35.3796 40.4896 35.3796 41.0696 35.1496C42.0896 34.7496 43.0796 34.2796 43.9996 33.6996C44.8896 33.2596 45.7696 32.6996 46.5196 32.0596C47.3796 31.3096 48.5296 29.8396 48.9296 29.1396C49.9496 27.0696 50.1196 25.3096 49.5096 22.9396C48.9996 21.0296 48.8296 20.2296 47.3196 19.3296V19.3096ZM4.27966 15.7296C4.35966 14.0896 4.43961 11.9696 5.22961 9.95959C6.22961 7.40959 8.34962 6.22959 11.0496 6.66959C12.8796 6.96959 14.0396 8.36959 13.9996 10.2196C13.9196 13.7796 11.2397 17.3896 7.89965 18.4996C7.26965 18.7096 6.61961 18.7796 5.97961 18.7596C4.40961 18.7096 4.22965 18.3896 4.26965 15.7296H4.27966ZM46.7596 27.2696C46.3796 28.6196 45.1296 29.8896 42.9996 30.9796C41.9596 31.4696 40.9096 31.9496 39.8796 32.4596C39.3896 32.6996 39.1596 32.6996 39.1096 32.0396C38.9696 30.2696 38.7696 28.4996 38.5596 26.7296C38.4796 26.0196 38.5996 25.4596 39.1296 24.8996C40.3796 23.5796 41.6196 22.2696 43.2196 21.3496C44.0696 20.9696 44.9096 20.7696 45.7296 21.4196C46.5096 22.2596 46.5696 23.3196 46.7896 24.3396C47.0096 25.3196 47.0696 25.7796 46.7696 27.2796L46.7596 27.2696Z" fill="#6A6D6F"></path></svg>